PathFileType	4	(X/Y/Z)	C:/Users/beibeiliu/ov580/test_trc/User2\sequence.17_training_dense_left.trc
DataRate	CameraRate	NumFrames	NumMarkers	Units	OrigDataRate	OrigDataStartFrame	OrigNumFrames
120	120	17	19	mm	120	165	438
Frame#	Time	ThumbCMC			ThumbMCP			ThumbIP			ThumbTip			IndexMCP			IndexPIP			IndexTip			MiddleMCP			MiddlePIP			MiddleTip			RingMCP			RingPIP			RingTip			PinkyMCP			PinkyPIP			PinkyTip			BackHand1			BackHand2			BackHand3	
		X0	Y0	Z0	X1	Y1	Z1	X2	Y2	Z2	X3	Y3	Z3	X4	Y4	Z4	X5	Y5	Z5	X6	Y6	Z6	X7	Y7	Z7	X8	Y8	Z8	X9	Y9	Z9	X10	Y10	Z10	X11	Y11	Z11	X12	Y12	Z12	X13	Y13	Z13	X14	Y14	Z14	X15	Y15	Z15	X16	Y16	Z16	X17	Y17	Z17	X18	Y18	Z18	
164	1.36667	-136.828	-15.3315	60.1512	-110.122	-28.8804	45.5387	-97.4637	-46.2649	15.5532	-103.457	-61.3298	-7.67562	-143.416	-12.3179	-26.6725	-135.003	-38.2108	-45.6499	-128.921	-65.3403	-27.2173	-164.391	-17.5655	-33.054	-153.992	-50.204	-50.7629	-144.059	-74.12	-19.1344	-183.078	-31.9528	-31.7849	-171.453	-58.4509	-46.0646	-156.483	-75.1181	-18.7987	-200.331	-44.4386	-16.566	-178.661	-66.982	-33.4467	-163.312	-86.3559	-12.0034	-201.236	-14.1308	26.2409	-209.125	-8.47642	59.3794	-170.225	4.38939	43.7195	
165	1.375	-131.895	-13.3938	63.8927	-107.343	-27.5804	49.1418	-90.6063	-45.7922	20.3867	-99.9191	-61.0953	-1.1847	-135.546	-11.5638	-19.8301	-127.956	-41.2794	-39.7117	-121.915	-67.5786	-19.6259	-157.403	-22.1966	-32.1066	-141.809	-54.9402	-44.9636	-132.111	-73.8677	-12.8378	-170.536	-33.3226	-30.4541	-156.597	-61.484	-40.7024	-147.117	-76.6149	-11.7465	-187.848	-44.9482	-17.5012	-173.482	-70.4127	-32.0287	-157.54	-86.503	-9.63508	-197.866	-12.9013	25.4175	-202.906	-6.30148	55.5164	-169.864	4.25507	45.137	
166	1.38333	-127.267	-10.913	69.2498	-99.281	-24.3422	55.686	-80.2549	-41.3421	27.3402	-94.6373	-57.174	6.16269	-127.636	-9.7358	-14.7286	-116.146	-37.4198	-35.2167	-106.115	-64.3922	-12.2754	-145.857	-20.4018	-31.2228	-129.978	-52.5678	-40.2656	-124.395	-72.8285	-6.15307	-166.219	-33.8408	-28.1971	-146.543	-58.3375	-37.0191	-141.481	-76.34	-7.02289	-180.119	-46.8891	-18.3622	-157.27	-69.1584	-25.805	-147.821	-88.6885	-5.08589	-192.627	-12.6409	26.4361	-198.016	-6.58952	58.2272	-160.355	5.56896	47.5942	
167	1.39167	-125.644	-8.84843	77.4597	-95.7597	-21.0053	58.8165	-75.4562	-36.5592	36.375	-85.1091	-53.3823	8.64355	-118.592	-5.27535	-13.9705	-107.118	-32.4856	-30.5169	-100.397	-58.8371	-7.86919	-138.56	-16.7433	-26.2081	-121.131	-45.7572	-37.1273	-118.895	-68.9238	-1.99098	-153.907	-28.2156	-22.8464	-136.286	-55.7931	-33.9646	-132.491	-72.2629	-0.678085	-169.81	-40.545	-13.5253	-150.714	-65.9811	-25.7736	-139.553	-86.6184	-3.90152	-184.735	-9.67403	25.8175	-194.778	-6.51765	58.863	-155.855	7.21985	50.5487	
168	1.4	-123.127	-8.13878	76.5366	-92.947	-18.3069	67.4113	-74.9127	-33.2284	37.5556	-77.6142	-47.5536	11.9253	-111.872	0.943064	-7.44452	-99.8409	-25.7891	-26.6068	-94.767	-53.7218	-6.07095	-127.894	-9.34371	-22.3832	-112.439	-39.2448	-34.3358	-110.339	-63.1546	2.47754	-143.879	-24.5281	-25.5594	-125.497	-48.1093	-29.8606	-123.992	-64.7538	-1.14251	-162.949	-35.5692	-13.6477	-138.959	-59.273	-23.6043	-131.052	-76.6441	-2.17754	-178.703	-6.41792	29.7302	-192.089	-5.01893	58.2525	-153.37	12.2338	56.1954	
169	1.40833	-119.338	-6.43205	85.0134	-92.1836	-16.5326	65.841	-72.5235	-29.0135	39.1955	-75.2449	-42.0568	17.1346	-107.35	7.06428	-3.23052	-91.3975	-16.1641	-23.0368	-87.3022	-44.6813	-5.40222	-126.9	-2.80012	-18.9136	-104.094	-31.7374	-30.9462	-103.913	-56.095	-1.65492	-141.594	-15.2462	-19.9795	-124.477	-42.5654	-32.0834	-121.994	-61.9134	2.98613	-155.624	-27.9171	-12.3625	-137.665	-53.6206	-24.5949	-128.889	-72.7652	-2.33255	-173.528	-2.58947	32.3857	-188.158	0.441648	62.2564	-152.261	13.7436	57.8985	
170	1.41667	-116.813	-5.63341	82.0992	-86.2889	-16.5259	70.4182	-68.3629	-27.6595	44.7444	-74.8493	-39.7553	13.6315	-105.229	10.3547	-3.22206	-91.4442	-10.2198	-21.5513	-86.7733	-41.6706	-4.75367	-123.628	2.9349	-19.0587	-101.246	-25.2669	-30.8296	-106.272	-51.5092	-2.79728	-138.892	-11.4474	-24.1563	-119.719	-36.5577	-29.9836	-118.724	-54.1765	-2.09015	-158.124	-23.8541	-13.59	-134.898	-43.4948	-24.4973	-127.087	-66.4969	0.357112	-174.726	-2.19708	32.1519	-189.023	-0.308124	61.6572	-151.63	14.6621	61.2686	
171	1.425	-116.928	-7.20198	84.3708	-89.6276	-18.7082	67.9427	-71.4496	-28.5964	38.6052	-75.5583	-38.139	15.6855	-103.778	13.6159	-1.6986	-93.2933	-6.59148	-21.0443	-87.3827	-39.3493	-5.74507	-123.118	7.90333	-16.6314	-104.703	-16.7895	-32.7544	-103.597	-47.8366	-3.10883	-138.105	-4.83182	-19.631	-122.457	-27.5767	-33.4254	-119.596	-51.3952	-1.03542	-158.332	-19.4818	-12.1143	-133.709	-40.362	-26.362	-127.709	-60.5947	-4.7951	-172.509	1.00565	29.8309	-187.891	0.810544	65.5458	-147.149	14.2638	65.1858	
172	1.43333	-117.271	-11.1157	82.9684	-86.4452	-22.2188	67.541	-72.0714	-30.3952	35.2998	-76.1739	-40.4371	7.74703	-106.268	15.3507	3.15814	-94.4953	-3.65026	-22.8189	-86.9719	-35.1302	-9.98515	-126.75	9.29069	-14.5204	-106.123	-14.7919	-33.8333	-106.462	-46.5258	-4.88992	-137.651	-1.51388	-22.0726	-122.836	-26.8832	-33.3349	-123.904	-49.5145	-6.56233	-161.369	-17.1591	-14.8504	-136.599	-39.0605	-27.738	-132.168	-63.1682	-3.87305	-169.5	3.89052	33.3409	-187.328	0.610212	62.9728	-151.66	12.0106	64.3148	
173	1.44167	-119.822	-15.4428	77.9234	-92.2901	-26.4562	59.1139	-72.4366	-35.1856	28.4889	-83.9897	-41.5295	3.48203	-110.639	14.3029	1.07002	-96.8069	-5.93758	-26.0816	-97.0356	-37.0453	-15.0683	-128.951	11.2297	-15.5262	-111.369	-15.0879	-37.2568	-109.526	-45.8721	-10.1787	-143.301	0.254004	-19.165	-131.431	-23.4023	-38.4676	-124.393	-47.5976	-9.34317	-162.183	-12.1861	-15.4028	-141.498	-35.5192	-29.392	-138.964	-61.104	-8.67091	-171.807	5.85439	37.0375	-184.633	-0.0774323	62.8889	-145.879	12.5724	64.1306	
174	1.45	-119.859	-20.2778	73.3836	-95.7766	-30.3129	52.4764	-77.2376	-39.8713	21.0264	-92.9055	-43.6058	-2.36499	-112.143	13.5856	-0.429875	-107.175	-6.16827	-30.3721	-103.37	-40.2866	-19.5615	-134.328	11.266	-18.2435	-121.815	-16.3233	-41.8073	-120.599	-46.9206	-21.5462	-152.529	0.358304	-24.3235	-135.809	-22.8284	-38.9536	-134.341	-49.1882	-15.4009	-170.095	-11.7176	-16.7167	-150.416	-33.0228	-32.2525	-147.199	-59.4997	-12.8082	-177.059	6.02057	33.54	-187.749	0.283668	65.0778	-147.738	9.03552	63.9786	
175	1.45833	-123.29	-24.6301	72.3253	-96.4682	-36.4709	47.5987	-87.1155	-46.0817	15.9572	-95.7777	-51.9544	-11.978	-123.75	7.59993	-7.97676	-114.54	-6.77634	-35.8311	-112.347	-43.6048	-28.8326	-144.067	7.86554	-22.7305	-136.508	-16.6163	-47.5964	-131.34	-53.3377	-24.8094	-161.437	-2.49222	-24.5799	-148.489	-26.3038	-42.1464	-144.255	-52.6196	-22.6112	-180.9	-13.3904	-17.85	-165.218	-36.2872	-34.499	-157.097	-62.9501	-16.5366	-180.337	1.90001	39.015	-186.994	-0.977785	67.1274	-149.966	5.71812	62.647	
176	1.46667	-124.095	-27.4031	63.9378	-101.65	-42.0232	42.7563	-92.1994	-54.1514	12.558	-102.828	-60.7402	-14.419	-133.714	0.0302858	-13.6249	-132.514	-19.984	-42.2386	-128.501	-51.1632	-36.2934	-154.837	-0.538621	-26.8438	-148.269	-25.3811	-50.5865	-142.207	-63.0721	-29.6205	-174.059	-10.1206	-26.2102	-167.607	-34.264	-46.1245	-156.518	-63.0808	-21.928	-188.133	-19.3556	-15.13	-179.692	-47.3124	-35.0149	-170.993	-70.8632	-16.824	-186.925	-0.62195	36.4034	-191.269	-1.85165	66.753	-151.32	4.24895	55.6355	
177	1.475	-124.553	-29.0444	62.5393	-105.732	-46.6532	39.0905	-98.498	-60.6641	11.4226	-113.038	-69.1326	-16.5467	-141.57	-8.60758	-22.6155	-145.004	-29.7487	-46.802	-139.579	-65.1445	-37.7721	-165.682	-10.6923	-27.1827	-163.156	-41.602	-52.6897	-157.778	-72.459	-31.4842	-181.924	-18.8023	-27.9438	-180.939	-44.1279	-45.6761	-168.62	-73.6706	-22.0433	-204.021	-28.649	-11.0039	-194.366	-55.036	-32.8421	-182.524	-80.8927	-13.3899	-192.198	-4.1607	31.732	-196.491	-4.64972	68.5657	-157.963	1.36043	53.28	
178	1.48333	-127.556	-32.4561	60.0808	-114.623	-50.0034	36.9852	-102.15	-69.1308	7.24333	-116.16	-81.0203	-15.6448	-148.564	-18.296	-21.4326	-155.689	-40.1162	-47.4561	-148.302	-77.0214	-37.7388	-170.516	-19.8318	-33.0553	-170.489	-52.4093	-51.7293	-164.205	-82.5701	-29.4141	-190.736	-26.9325	-25.8079	-192.145	-56.9613	-43.3316	-176.307	-81.5971	-21.5225	-211.08	-36.4416	-12.3913	-201.85	-60.6983	-29.2432	-187.888	-86.1426	-12.34	-198.195	-9.95437	32.7569	-194.702	-4.268	65.0241	-158.787	-1.65348	50.419	
179	1.49167	-130.544	-34.3207	61.8138	-113.49	-53.5247	42.0989	-107.978	-73.7062	10.4457	-120	-86.3685	-8.92033	-154.221	-25.677	-26.1873	-154.305	-46.2068	-47.5393	-156.369	-80.6988	-36.0681	-174.466	-25.8648	-29.7722	-175.404	-55.9464	-50.8911	-169.746	-88.5294	-27.3671	-199.278	-34.5268	-23.8218	-193.844	-60.503	-41.7699	-180.602	-87.7357	-17.8884	-215.076	-42.3925	-11.3203	-204.678	-69.0945	-28.266	-192.929	-92.4575	-12.0026	-200.328	-13.4325	35.4118	-196.419	-8.44283	67.8329	-163.355	-5.09546	50.9884	
180	1.5	-131.596	-33.4089	60.9085	-111.852	-53.3945	44.0825	-103.783	-75.6953	10.3644	-121.947	-88.0752	-9.43951	-154.848	-27.8538	-20.8992	-155.127	-54.6855	-44.1775	-147.974	-86.0844	-31.7922	-172.41	-31.0165	-32.7706	-170.792	-64.3935	-49.1641	-164.178	-92.9957	-23.121	-196.683	-39.05	-28.2655	-189.006	-63.6866	-41.6101	-177.92	-91.0425	-15.5385	-209.277	-44.9885	-10.9269	-202.821	-70.5054	-28.5474	-190.276	-95.5883	-14.402	-196.012	-14.0004	32.2298	-200.358	-7.01733	62.4593	-166.324	-7.78879	49.7085	
